<?xml version="1.0" encoding="utf-8"?>
<!-- Generator: Adobe Illustrator 22.1.0, SVG Export Plug-In . SVG Version: 6.00 Build 0)  -->
<svg version="1.1" id="图层_5" xmlns="http://www.w3.org/2000/svg" xmlns:xlink="http://www.w3.org/1999/xlink" x="0px" y="0px"
	 viewBox="0 0 924.5 815.5" style="enable-background:new 0 0 924.5 815.5;" xml:space="preserve">
<style type="text/css">
	.st0{fill:#FAFFFE;}
	.st1{fill:#42210B;}
	.st2{fill:#FEFEFE;}
	.st3{fill:#FFD884;}
	.st4{fill:#603813;}
	.st5{fill:#A67C52;}
</style>
<g>
	<g>
		
			<ellipse transform="matrix(1.646197e-02 -0.9999 0.9999 1.646197e-02 -68.0759 970.1956)" class="st0" cx="459.1" cy="519.7" rx="103.1" ry="307.1"/>
		<path class="st1" d="M553.7,626.7c-30.8,2.9-63.2,4.1-96.4,3.5c-82.8-1.4-160.6-13.5-219-34.2c-60.9-21.6-94.2-50.5-93.7-81.5
			c0.5-31,34.7-58.8,96.4-78.4c59.1-18.8,137.2-28.3,220-27c82.8,1.4,160.6,13.5,219,34.2c60.9,21.6,94.2,50.5,93.7,81.5
			c-0.5,31-34.7,58.8-96.4,78.4C641.9,614.5,599.7,622.5,553.7,626.7z M365.1,427.5c-125.4,11.6-205,49.9-205.6,87.2
			c-0.8,46.2,118.8,97.6,298,100.6c81.2,1.3,157.7-8,215.3-26.3c54.2-17.2,85.5-40.7,85.9-64.4c0.8-46.2-118.8-97.6-298-100.6
			C426.6,423.5,394.6,424.8,365.1,427.5z"/>
	</g>
	<g>
		<g>
			<path class="st2" d="M538.5,480.5l-20-0.3c-46.4-0.8-96.6-30-78.7-78.7c2.7-7.2,4.9-11.3,0.7-17.8l-6.3-7.4
				c-0.4-0.6-0.6-1.4-0.6-2.1c0-0.6,0.1-1.2,0.2-1.8c2.3-15.5,22.5-20.2,31.8-7.7l0.7,0.9c9.9,13.1,28.8,15.2,41.2,4.4l4.2-3.6
				c11.6-10,29-9,39.3,2.2l1.5,1.6c12.2,13.2,33.6,11.8,44-2.9l3.5-4.9c9.4-13.3,25.3-1.2,24,14.6l-4.4,10.3
				c-3.8,6.4-2.2,12.2-0.3,19.4C632,455.7,584.9,481.3,538.5,480.5z"/>
			<path class="st3" d="M552.5,487.4c-4.6,0.4-9.4,0.6-14.2,0.5l0,0l-20-0.3c-34-0.6-65.6-14.8-80.3-36.4
				c-10.5-15.3-12.3-33.4-5.3-52.4l0.7-1.9c2.2-5.7,2.3-6.6,0.9-8.8l-6.5-7.7c-1.3-2-1.9-4.4-1.8-6.7c0.1-0.8,0.1-1.6,0.3-2.4
				c1.5-10.1,8.7-17.9,18.6-20.4c10-2.5,20.4,1.1,26.6,9.3l0.7,0.9c3.5,4.7,8.6,7.6,14.5,8.2c5.8,0.6,11.4-1.1,15.9-5l4.2-3.6
				c14.7-12.7,36.5-11.5,49.7,2.8l1.5,1.6c4.3,4.6,10.4,7.1,16.7,6.7c6.3-0.5,12-3.6,15.7-8.8l3.5-4.9c5.4-7.7,13.8-10.7,21.9-7.8
				c10.1,3.7,16.7,15.1,15.6,27.3l-0.1,1.2l-5.3,12.3c-2,3.4-1.3,6.5,0.4,13.2l0.1,0.5c5.1,19.6,1.8,37.7-9.5,52.1
				C603.8,473.8,579.9,484.9,552.5,487.4z M538.6,473c28.5,0.5,54-9.2,66.6-25.3c8.5-10.8,10.8-24,6.8-39.1l-0.1-0.5
				c-1.9-7.2-4-15.4,1-24.2l3.7-8.7c0.1-5.4-2.9-9.8-5.9-10.9c-0.7-0.3-2.3-0.8-4.6,2.3l-3.5,4.9c-6.3,8.9-16,14.4-26.9,15.1
				c-10.8,0.7-21.3-3.4-28.7-11.4l-1.5-1.6c-7.7-8.3-20.4-9-29-1.6l-4.2,3.6c-7.5,6.5-17.4,9.6-27.2,8.5
				c-9.8-1.1-18.9-6.2-24.8-14.1l-0.7-0.9c-3.1-4.1-7.7-4.7-11-3.8c-1.5,0.4-6.3,2-7.4,7.7l5.4,6.5c5.9,9,3.3,15.9,0.8,22.6
				l-0.7,1.8c-5.3,14.5-4.1,27.5,3.6,38.8c11.9,17.4,39.3,29.4,68.2,29.9L538.6,473L538.6,473z"/>
		</g>
		<g>
			
				<rect x="467.2" y="388.2" transform="matrix(0.6787 -0.7345 0.7345 0.6787 -142.7688 475.197)" class="st3" width="9" height="25.2"/>
		</g>
		<g>
			
				<rect x="490.4" y="391.7" transform="matrix(0.9842 -0.1772 0.1772 0.9842 -62.419 93.9556)" class="st3" width="9" height="9.5"/>
		</g>
		<g>
			
				<rect x="517.5" y="390.4" transform="matrix(1.642729e-02 -0.9999 0.9999 1.642729e-02 120.6484 912.5114)" class="st3" width="13.4" height="9"/>
		</g>
		<g>
			
				<rect x="542.4" y="396.9" transform="matrix(0.2355 -0.9719 0.9719 0.2355 27.7641 838.0901)" class="st3" width="8.3" height="9"/>
		</g>
		<g>
			
				<rect x="563.8" y="396.4" transform="matrix(0.5397 -0.8418 0.8418 0.5397 -73.7955 666.8177)" class="st3" width="18.3" height="9"/>
		</g>
		<g>
			
				<rect x="594.9" y="394.7" transform="matrix(0.759 -0.6511 0.6511 0.759 -115.4408 486.5781)" class="st3" width="9.2" height="9"/>
		</g>
	</g>
	<g>
		<g>
			<path class="st2" d="M340.8,506.8l-20-0.3c-46.4-0.8-96.6-30-78.7-78.7c2.7-7.2,4.9-11.3,0.7-17.8l-6.3-7.4
				c-0.4-0.6-0.6-1.4-0.6-2.1c0-0.6,0.1-1.2,0.2-1.8c2.3-15.5,22.5-20.2,31.8-7.7l0.7,0.9c9.9,13.1,28.8,15.2,41.2,4.4l4.2-3.6
				c11.6-10,29-9,39.3,2.2l1.5,1.6c12.2,13.2,33.6,11.8,44-2.9l3.5-4.9c9.4-13.3,25.3-1.2,24,14.6l-4.4,10.3
				c-3.8,6.4-2.2,12.2-0.3,19.4C434.3,482,387.2,507.6,340.8,506.8z"/>
			<path class="st3" d="M354.8,513.7c-4.6,0.4-9.4,0.6-14.2,0.5l0,0l-20-0.3c-34-0.6-65.6-14.8-80.3-36.4
				c-10.5-15.3-12.3-33.4-5.3-52.4l0.7-1.9c2.2-5.7,2.3-6.6,0.9-8.8l-6.5-7.7c-1.3-2-1.9-4.4-1.8-6.7c0.1-0.8,0.1-1.6,0.3-2.4
				c1.5-10.1,8.6-17.9,18.6-20.4c10-2.5,20.4,1.1,26.6,9.3l0.7,0.9c3.5,4.7,8.6,7.6,14.5,8.2c5.8,0.6,11.4-1.1,15.9-5l4.2-3.6
				c14.7-12.7,36.5-11.5,49.7,2.8l1.5,1.6c4.3,4.6,10.4,7.1,16.7,6.7c6.4-0.4,12-3.6,15.7-8.8l3.5-4.9c5.4-7.7,13.8-10.7,21.9-7.8
				c10.1,3.7,16.7,15.1,15.6,27.3l-0.1,1.2l-5.3,12.3c-2,3.4-1.3,6.5,0.4,13.2l0.1,0.5c5.1,19.6,1.8,37.7-9.5,52.1
				C406.1,500.1,382.1,511.2,354.8,513.7z M340.9,499.3c28.5,0.5,54-9.2,66.6-25.3c8.5-10.8,10.8-24,6.8-39.1l-0.1-0.5
				c-1.9-7.2-4-15.4,0.9-24.2l3.7-8.7c0.1-5.4-2.9-9.8-5.9-10.9c-0.7-0.3-2.3-0.9-4.6,2.3l-3.5,4.9c-6.3,8.9-16.1,14.4-26.9,15.1
				c-10.8,0.7-21.3-3.4-28.7-11.4l-1.5-1.6c-7.7-8.3-20.4-9-29-1.6l-4.2,3.6c-7.5,6.5-17.4,9.6-27.2,8.5
				c-9.8-1.1-18.9-6.2-24.8-14.1l-0.7-0.9c-3.1-4.1-7.7-4.7-11-3.8c-1.5,0.4-6.3,2-7.4,7.7l5.4,6.5c5.9,9,3.3,15.9,0.8,22.6
				l-0.7,1.8c-5.3,14.5-4.1,27.5,3.6,38.8c11.9,17.4,39.3,29.4,68.2,29.9L340.9,499.3L340.9,499.3z"/>
		</g>
		<g>
			
				<rect x="269.5" y="414.4" transform="matrix(0.6786 -0.7345 0.7345 0.6786 -225.6223 338.4673)" class="st3" width="9" height="25.2"/>
		</g>
		<g>
			
				<rect x="292.7" y="418" transform="matrix(0.9842 -0.1769 0.1769 0.9842 -70.0945 59.2269)" class="st3" width="9" height="9.5"/>
		</g>
		<g>
			
				<rect x="319.7" y="416.7" transform="matrix(1.642729e-02 -0.9999 0.9999 1.642729e-02 -100.1075 740.6806)" class="st3" width="13.4" height="9"/>
		</g>
		<g>
			
				<rect x="344.7" y="423.2" transform="matrix(0.2355 -0.9719 0.9719 0.2355 -148.953 666.0305)" class="st3" width="8.3" height="9"/>
		</g>
		<g>
			
				<rect x="366.1" y="422.7" transform="matrix(0.5393 -0.8421 0.8421 0.5393 -186.8849 512.7616)" class="st3" width="18.3" height="9"/>
		</g>
		<g>
			
				<rect x="397.2" y="421" transform="matrix(0.759 -0.6511 0.6511 0.759 -180.2126 364.1779)" class="st3" width="9.2" height="9"/>
		</g>
	</g>
	<g>
		<g>
			<path class="st2" d="M344.2,561.7l-20-0.3c-46.4-0.8-96.6-30-78.7-78.7c2.7-7.2,4.9-11.3,0.7-17.8l-6.3-7.4
				c-0.4-0.6-0.6-1.4-0.6-2.1c0-0.6,0.1-1.2,0.2-1.8c2.3-15.5,22.5-20.2,31.8-7.7l0.7,0.9c9.9,13.1,28.8,15.2,41.2,4.4l4.2-3.6
				c11.6-10,29-9,39.3,2.2l1.5,1.6c12.2,13.2,33.6,11.8,44-2.9l3.5-4.9c9.4-13.3,25.3-1.2,24,14.6l-4.4,10.3
				c-3.8,6.4-2.2,12.2-0.3,19.4C437.7,536.9,390.6,562.5,344.2,561.7z"/>
			<path class="st3" d="M358.2,568.6c-4.6,0.4-9.4,0.6-14.2,0.5l-20-0.3c-34-0.6-65.6-14.8-80.3-36.4c-10.5-15.3-12.3-33.4-5.3-52.4
				l0.7-1.9c2.2-5.7,2.3-6.6,0.9-8.8l-6.5-7.7c-1.3-2-1.9-4.4-1.8-6.7c0.1-0.8,0.1-1.6,0.3-2.4c1.5-10.1,8.6-17.9,18.6-20.4
				c10-2.5,20.4,1.1,26.6,9.3l0.7,0.9c3.5,4.7,8.6,7.6,14.5,8.2c5.8,0.6,11.4-1.1,15.9-5l4.2-3.6c14.7-12.7,36.5-11.5,49.7,2.8
				l1.5,1.6c4.3,4.6,10.4,7.1,16.7,6.7c6.3-0.4,12-3.6,15.7-8.8l3.5-4.9c5.4-7.7,13.8-10.7,21.9-7.8c10.1,3.7,16.7,15.1,15.6,27.3
				L437,460l-5.3,12.3c-2,3.4-1.3,6.5,0.4,13.2l0.1,0.5c5.1,19.6,1.8,37.7-9.5,52.1C409.5,555,385.6,566.1,358.2,568.6z M247,454.3
				l5.4,6.5c5.9,9,3.3,15.9,0.8,22.6l-0.7,1.8c-5.3,14.5-4.1,27.5,3.6,38.8c11.9,17.4,39.3,29.4,68.2,29.9l20,0.3
				c28.5,0.5,54-9.2,66.6-25.3c8.5-10.8,10.8-24,6.8-39.1l-0.1-0.5c-1.9-7.2-4-15.4,1-24.2l3.7-8.7c0.1-5.4-2.9-9.8-5.9-10.9
				c-0.7-0.3-2.3-0.8-4.6,2.3l-3.5,4.9c-6.3,8.9-16,14.3-26.9,15.1c-10.8,0.7-21.3-3.4-28.7-11.4l-1.5-1.6c-7.7-8.3-20.4-9-29-1.6
				l-4.2,3.6c-7.5,6.5-17.4,9.6-27.2,8.5c-9.8-1.1-18.9-6.2-24.8-14.1l-0.7-0.9c-3.1-4.1-7.7-4.7-11-3.8
				C252.9,447,248,448.7,247,454.3z"/>
		</g>
		<g>
			
				<rect x="272.9" y="469.3" transform="matrix(0.6785 -0.7346 0.7346 0.6785 -264.8559 358.6703)" class="st3" width="9" height="25.2"/>
		</g>
		<g>
			
				<rect x="296.1" y="472.9" transform="matrix(0.9842 -0.1769 0.1769 0.9842 -79.7508 60.6972)" class="st3" width="9" height="9.5"/>
		</g>
		<g>
			
				<rect x="323.2" y="471.6" transform="matrix(1.642729e-02 -0.9999 0.9999 1.642729e-02 -151.6355 798.0954)" class="st3" width="13.4" height="9"/>
		</g>
		<g>
			
				<rect x="348.1" y="478.1" transform="matrix(0.2355 -0.9719 0.9719 0.2355 -199.6925 711.324)" class="st3" width="8.3" height="9"/>
		</g>
		<g>
			
				<rect x="369.5" y="477.6" transform="matrix(0.5397 -0.8418 0.8418 0.5397 -231.5699 540.618)" class="st3" width="18.3" height="9"/>
		</g>
		<g>
			
				<rect x="400.6" y="475.9" transform="matrix(0.759 -0.6511 0.6511 0.759 -215.1319 379.6357)" class="st3" width="9.2" height="9"/>
		</g>
	</g>
	<g>
		<g>
			<path class="st2" d="M508.5,546.7l-20-0.3c-46.4-0.8-96.6-30-78.7-78.7c2.7-7.2,4.9-11.3,0.7-17.8l-6.3-7.4
				c-0.4-0.6-0.6-1.4-0.6-2.1c0-0.6,0.1-1.2,0.2-1.8c2.3-15.5,22.5-20.2,31.8-7.7l0.7,0.9c9.9,13.1,28.8,15.2,41.2,4.4l4.2-3.6
				c11.6-10,29-9,39.3,2.2l1.5,1.6c12.2,13.2,33.6,11.8,44-2.9l3.5-4.9c9.4-13.3,25.3-1.2,24,14.6l-4.4,10.3
				c-3.8,6.4-2.2,12.2-0.3,19.4C602.1,521.9,555,547.5,508.5,546.7z"/>
			<path class="st3" d="M522.6,553.6c-4.6,0.4-9.4,0.6-14.2,0.5l0,0l-20-0.3c-34-0.6-65.5-14.8-80.3-36.4
				c-10.5-15.3-12.3-33.4-5.3-52.4l0.7-1.9c2.2-5.7,2.3-6.6,0.9-8.8l-6.5-7.7c-1.3-2-1.9-4.3-1.8-6.7c0.1-0.8,0.1-1.6,0.3-2.4
				c1.5-10.1,8.7-17.9,18.6-20.4c10-2.5,20.4,1.1,26.6,9.3l0.7,0.9c3.5,4.7,8.6,7.6,14.5,8.2c5.8,0.6,11.4-1.1,15.9-5l4.2-3.6
				c14.7-12.7,36.5-11.5,49.7,2.8l1.5,1.6c4.3,4.6,10.4,7.1,16.7,6.7c6.3-0.4,12-3.6,15.7-8.8l3.5-4.9c5.4-7.7,13.8-10.7,21.9-7.8
				c10.1,3.7,16.7,15.1,15.6,27.3l-0.1,1.2l-5.3,12.3c-2,3.4-1.4,6.5,0.4,13.2l0.1,0.5c5.1,19.6,1.8,37.7-9.5,52.1
				C573.8,540,549.9,551.1,522.6,553.6z M508.6,539.2c28.5,0.5,54-9.2,66.6-25.3c8.5-10.8,10.8-24,6.8-39.1l-0.1-0.5
				c-1.9-7.2-4-15.4,1-24.1l3.7-8.7c0.1-5.4-2.9-9.8-5.9-10.9c-0.7-0.3-2.3-0.8-4.6,2.3l-3.5,4.9c-6.1,8.6-15.5,14.1-26,15
				c-0.3,0-0.6,0.1-0.9,0.1c-10.8,0.7-21.3-3.4-28.7-11.4l-1.5-1.6c-7.7-8.3-20.4-9-29-1.6l-4.2,3.6c-7.5,6.5-17.4,9.6-27.2,8.5
				c-9.8-1.1-18.9-6.2-24.8-14.1l-0.7-0.9c-3.1-4.1-7.7-4.7-11-3.8c-1.5,0.4-6.3,2-7.4,7.7l5.4,6.5c5.9,9,3.3,15.9,0.8,22.6
				l-0.7,1.8c-5.3,14.5-4.1,27.5,3.6,38.8c11.9,17.4,39.3,29.4,68.2,29.9L508.6,539.2L508.6,539.2z"/>
		</g>
		<g>
			
				<rect x="437.2" y="454.3" transform="matrix(0.6785 -0.7346 0.7346 0.6785 -201.0128 474.5636)" class="st3" width="9" height="25.2"/>
		</g>
		<g>
			
				<rect x="460.4" y="457.9" transform="matrix(0.9842 -0.1769 0.1769 0.9842 -74.5072 89.528)" class="st3" width="9" height="9.5"/>
		</g>
		<g>
			
				<rect x="487.5" y="456.6" transform="matrix(1.642729e-02 -0.9999 0.9999 1.642729e-02 24.9912 947.6564)" class="st3" width="13.4" height="9"/>
		</g>
		<g>
			
				<rect x="512.4" y="463.1" transform="matrix(0.2361 -0.9717 0.9717 0.2361 -59.719 859.218)" class="st3" width="8.3" height="9"/>
		</g>
		<g>
			
				<rect x="533.8" y="462.6" transform="matrix(0.5393 -0.8421 0.8421 0.5393 -143.2038 672.4096)" class="st3" width="18.3" height="9"/>
		</g>
		<g>
			<rect x="565" y="460.9" transform="matrix(0.759 -0.6511 0.6511 0.759 -165.761 483.0208)" class="st3" width="9.2" height="9"/>
		</g>
	</g>
	<g>
		<g>
			<path class="st2" d="M599.2,571.6l-20-0.3c-46.4-0.8-96.6-30-78.7-78.7c2.7-7.2,4.9-11.3,0.7-17.8l-6.3-7.4
				c-0.4-0.6-0.6-1.4-0.6-2.1c0-0.6,0.1-1.2,0.2-1.8c2.3-15.5,22.5-20.2,31.8-7.7l0.7,0.9c9.9,13.1,28.8,15.2,41.2,4.4l4.2-3.6
				c11.6-10,29-9,39.3,2.2l1.5,1.6c12.2,13.2,33.6,11.8,44-2.9l3.5-4.9c9.4-13.3,25.3-1.2,24,14.6l-4.4,10.3
				c-3.8,6.4-2.2,12.2-0.3,19.4C692.8,546.8,645.7,572.4,599.2,571.6z"/>
			<path class="st3" d="M613.3,578.6c-4.6,0.4-9.4,0.6-14.2,0.5l-20-0.3c-34-0.6-65.6-14.8-80.3-36.4c-10.5-15.3-12.3-33.4-5.3-52.4
				l0.7-1.9c2.2-5.7,2.3-6.6,0.9-8.8l-6.5-7.7c-1.3-2-1.9-4.4-1.8-6.7c0.1-0.8,0.1-1.6,0.3-2.4c1.5-10.1,8.7-17.9,18.6-20.4
				c10-2.5,20.4,1.1,26.6,9.3l0.7,0.9c3.5,4.7,8.6,7.6,14.5,8.2c5.8,0.6,11.4-1.1,15.9-5l4.2-3.6c14.7-12.7,36.5-11.5,49.7,2.8
				l1.5,1.6c4.3,4.6,10.4,7.1,16.7,6.7c6.2-0.5,12-3.6,15.7-8.8l3.5-4.9c5.4-7.7,13.8-10.7,21.9-7.8c10.1,3.7,16.7,15.1,15.6,27.3
				L692,470l-5.3,12.3c-2,3.4-1.3,6.5,0.4,13.2l0.1,0.5c5.1,19.6,1.8,37.7-9.5,52.1C664.5,564.9,640.6,576,613.3,578.6z
				 M599.3,564.2c28.5,0.5,54-9.2,66.6-25.3c8.5-10.8,10.8-24,6.8-39.1l-0.1-0.5c-1.9-7.2-4-15.4,1-24.2l3.7-8.7
				c0.1-5.4-2.9-9.8-5.9-10.9c-0.7-0.3-2.3-0.8-4.6,2.3l-3.5,4.9c-6.3,8.9-16,14.4-26.9,15.1c-10.8,0.7-21.3-3.4-28.7-11.4l-1.5-1.6
				c-7.7-8.3-20.4-9-29-1.6l-4.2,3.6c-7.5,6.5-17.4,9.6-27.2,8.5c-9.8-1.1-18.9-6.2-24.8-14.1l-0.7-0.9c-3.1-4.1-7.7-4.7-11-3.8
				c-1.5,0.4-6.3,2-7.4,7.7l5.4,6.5c5.9,9,3.3,15.9,0.8,22.6l-0.7,1.8c-5.3,14.5-4.1,27.5,3.6,38.8c11.9,17.4,39.3,29.4,68.2,29.9
				L599.3,564.2z"/>
		</g>
		<g>
			
				<rect x="527.9" y="479.3" transform="matrix(0.6787 -0.7345 0.7345 0.6787 -190.178 549.0872)" class="st3" width="9" height="25.2"/>
		</g>
		<g>
			
				<rect x="551.1" y="482.9" transform="matrix(0.9842 -0.1772 0.1772 0.9842 -77.6035 106.1586)" class="st3" width="9" height="9.5"/>
		</g>
		<g>
			
				<rect x="578.2" y="481.6" transform="matrix(1.642729e-02 -0.9999 0.9999 1.642729e-02 89.2753 1062.8651)" class="st3" width="13.4" height="9"/>
		</g>
		<g>
			
				<rect x="603.1" y="488" transform="matrix(0.2355 -0.9719 0.9719 0.2355 -14.3622 966.7859)" class="st3" width="8.3" height="9"/>
		</g>
		<g>
			
				<rect x="624.5" y="487.5" transform="matrix(0.5397 -0.8418 0.8418 0.5397 -122.5518 759.8863)" class="st3" width="18.3" height="9"/>
		</g>
		<g>
			
				<rect x="655.7" y="485.9" transform="matrix(0.759 -0.6511 0.6511 0.759 -160.1337 548.0857)" class="st3" width="9.2" height="9"/>
		</g>
	</g>
	<g>
		<g>
			<path class="st2" d="M463.2,592.3l-20-0.3c-46.4-0.8-96.6-30-78.7-78.7c2.7-7.2,4.9-11.3,0.7-17.8l-6.3-7.4
				c-0.4-0.6-0.6-1.4-0.6-2.1c0-0.6,0.1-1.2,0.2-1.8c2.3-15.5,22.5-20.2,31.8-7.7l0.7,0.9c9.9,13.1,28.8,15.2,41.2,4.4l4.2-3.6
				c11.6-10,29-9,39.3,2.2l1.5,1.6c12.2,13.2,33.6,11.8,44-2.9l3.5-4.9c9.4-13.3,25.3-1.2,24,14.6l-4.4,10.3
				c-3.8,6.4-2.2,12.2-0.3,19.4C556.8,567.4,509.7,593,463.2,592.3z"/>
			<path class="st3" d="M477.3,599.2c-4.6,0.4-9.4,0.6-14.2,0.5l-20-0.3c-34-0.6-65.6-14.8-80.3-36.4c-10.5-15.3-12.3-33.4-5.3-52.4
				l0.7-1.9c2.2-5.7,2.3-6.6,0.9-8.8l-6.5-7.7c-1.3-2-1.9-4.3-1.8-6.7c0.1-0.8,0.1-1.6,0.3-2.4c1.5-10.1,8.7-17.9,18.6-20.4
				c10-2.5,20.4,1.1,26.6,9.3l0.7,0.9c3.5,4.7,8.6,7.6,14.4,8.2c5.8,0.6,11.4-1.1,15.9-5l4.2-3.6c14.7-12.7,36.5-11.5,49.7,2.8
				l1.5,1.6c4.3,4.6,10.4,7.1,16.7,6.6c6.3-0.4,12-3.6,15.7-8.8l3.5-4.9c5.4-7.7,13.8-10.7,21.9-7.8c10.1,3.7,16.7,15.1,15.6,27.3
				l-0.1,1.2l-5.3,12.3c-2,3.4-1.4,6.5,0.4,13.2l0.1,0.5c5.1,19.6,1.8,37.7-9.5,52.1C528.5,585.5,504.6,596.7,477.3,599.2z
				 M366,484.9l5.4,6.5c5.9,9,3.3,15.9,0.8,22.6l-0.7,1.8c-5.3,14.5-4.1,27.5,3.6,38.8c11.9,17.4,39.3,29.4,68.2,29.9l20,0.3
				c28.5,0.5,54-9.2,66.6-25.3c8.5-10.8,10.8-24,6.8-39.1l-0.1-0.5c-1.9-7.2-4-15.4,1-24.1l3.7-8.7c0.1-5.4-2.9-9.8-5.9-10.9
				c-0.7-0.3-2.3-0.8-4.6,2.3l-3.5,4.9c-6.3,8.9-16,14.4-26.9,15.1c-10.8,0.7-21.3-3.4-28.7-11.4l-1.5-1.6c-7.7-8.3-20.4-9-29-1.6
				l-4.2,3.6c-7.5,6.5-17.4,9.6-27.2,8.5c-9.8-1.1-18.9-6.2-24.8-14.1l-0.7-0.9c-3.1-4.1-7.7-4.7-11-3.8
				C371.9,477.6,367.1,479.2,366,484.9z"/>
		</g>
		<g>
			
				<rect x="391.9" y="499.9" transform="matrix(0.6786 -0.7345 0.7345 0.6786 -249.0364 455.868)" class="st3" width="9" height="25.2"/>
		</g>
		<g>
			
				<rect x="415.1" y="503.5" transform="matrix(0.9842 -0.1772 0.1772 0.9842 -83.4097 82.3858)" class="st3" width="9" height="9.5"/>
		</g>
		<g>
			
				<rect x="442.2" y="502.2" transform="matrix(1.642729e-02 -0.9999 0.9999 1.642729e-02 -65.1245 947.1557)" class="st3" width="13.4" height="9"/>
		</g>
		<g>
			
				<rect x="467.1" y="508.7" transform="matrix(0.2361 -0.9717 0.9717 0.2361 -138.6016 849.9869)" class="st3" width="8.3" height="9"/>
		</g>
		<g>
			
				<rect x="488.5" y="508.2" transform="matrix(0.5397 -0.8418 0.8418 0.5397 -202.5138 654.8792)" class="st3" width="18.3" height="9"/>
		</g>
		<g>
			
				<rect x="519.7" y="506.5" transform="matrix(0.759 -0.6511 0.6511 0.759 -206.3424 464.4967)" class="st3" width="9.2" height="9"/>
		</g>
	</g>
	<g>
		<g>
			<path class="st0" d="M757.4,642.8l-151.1-2.5c-6-0.1-10.9-5.1-10.8-11.2l1.1-66c0-2.9,2.5-5.2,5.3-5.2l162.5,2.7
				c2.9,0,5.2,2.5,5.2,5.3l-1.1,66C768.4,638.1,763.4,642.9,757.4,642.8z"/>
			<path class="st1" d="M723.9,649.4c-2.1,0.2-4.2,0.3-6.4,0.2l-71.7-1.2c-32.1-0.5-57.7-27-57.2-59.1l0.1-7.3
				c0.3-17.5,14.7-31.5,32.3-31.2l124.5,2c17.5,0.3,31.5,14.8,31.2,32.3l-0.1,7.3C776.2,622.4,753.1,646.7,723.9,649.4z
				 M717.8,634.7c23.8,0.4,43.5-18.7,43.9-42.5l0.1-7.2c0.1-4.5-1.6-8.7-4.7-11.9c-3.1-3.2-7.3-5.1-11.8-5.1l-124.5-2
				c-9.3-0.1-16.9,7.3-17.1,16.5l-0.1,7.2c-0.4,23.8,18.7,43.5,42.5,43.9L717.8,634.7z"/>
		</g>
		<g>
			
				<ellipse transform="matrix(1.646197e-02 -0.9999 0.9999 1.646197e-02 99.9034 1247.1713)" class="st0" cx="683.9" cy="572.8" rx="41" ry="85.6"/>
			<path class="st1" d="M703.1,620.5c-6.5,0.6-13.2,0.9-20,0.7c-24-0.4-46.5-5.3-63.5-13.8c-18.8-9.4-29-22.2-28.7-36.2
				c0.5-27.2,41.7-47.8,93.9-47c52.2,0.9,92.7,22.8,92.3,50c-0.2,14-10.9,26.5-29.9,35.3C734.7,615.3,719.5,619,703.1,620.5z
				 M666,539.9c-36,3.3-60,17.9-60.2,31.6c-0.1,7.8,7.3,16,20.5,22.6c15.1,7.5,35.3,11.9,57.1,12.2c21.8,0.4,42.2-3.3,57.5-10.3
				c13.3-6.1,21.1-14.1,21.2-21.9c0.3-15.9-31.5-34.1-77.6-34.8C678,539.2,671.8,539.4,666,539.9z"/>
		</g>
		<g>
			
				<ellipse transform="matrix(1.646197e-02 -0.9999 0.9999 1.646197e-02 99.1442 1247.8938)" class="st4" cx="683.9" cy="573.6" rx="30.6" ry="71.7"/>
		</g>
		<g>
			<path class="st5" d="M736.1,575.8c-5.4-3.8-11.3-6.7-17.6-8.7c-9.2-2.9-19.1-3.7-28.9-2.3l-1.3-8.9c11-1.6,22.4-0.6,32.8,2.7
				c7.1,2.2,13.8,5.6,20,9.9L736.1,575.8z"/>
		</g>
	</g>
	<g>
		<path class="st2" d="M317.4,353.5l-12.1-8.7c6.3-8.7,9.2-16.9,8.6-24.6c-0.7-9.6-6.6-16.5-13.4-24.5c-7.6-8.9-16.3-19.1-19.1-34.7
			c-1.9-10.7-0.7-22,3.6-33.5l14,5.3c-3.4,9-4.3,17.6-2.9,25.6c2.1,11.7,8.7,19.4,15.7,27.7c7.8,9.2,15.9,18.7,16.9,33.2
			C329.6,330.4,325.7,341.9,317.4,353.5z"/>
	</g>
	<g>
		<path class="st2" d="M478.5,321.6l-14.2-4.7c2.8-8.4,4.6-17.1,5.3-25.8c1.8-21.7-3.7-37.3-10-55.4c-3.8-10.9-7.7-22.1-10.6-35.9
			c-4.4-21.2-5.2-43.7-2.3-66.8l14.8,1.9c-2.7,21.5-2,42.3,2.1,61.9c2.7,12.8,6.4,23.6,10.1,34c6.6,18.9,12.8,36.7,10.7,61.5
			C483.7,302.2,481.7,312.1,478.5,321.6z"/>
	</g>
	<g>
		<path class="st2" d="M654.2,353.3l-13.8-5.8c3.3-7.8,5.2-15.8,5.6-23.7c0.6-12-2.2-20.8-5.5-30.9c-3.1-9.4-6.6-20.1-7.4-34.6
			c-0.6-10.4,0.3-21,2.7-31.6l14.6,3.3c-2.1,9.2-2.9,18.5-2.3,27.5c0.7,12.6,3.7,21.8,6.7,30.8c3.5,10.6,7,21.5,6.2,36.3
			C660.4,334.2,658.1,343.9,654.2,353.3z"/>
	</g>
</g>
</svg>
